<svg xmlns="http://www.w3.org/2000/svg" xmlns:xlink="http://www.w3.org/1999/xlink" width="400" zoomAndPan="magnify" viewBox="0 0 375 225" height="240" preserveAspectRatio="xMidYMid meet" version="1.0"><defs><clipPath id="c498458988"><path d="M 126.507812 97.738281 L 192.128906 97.738281 L 192.128906 165.386719 L 126.507812 165.386719 Z M 126.507812 97.738281 " clip-rule="nonzero"/></clipPath><clipPath id="302e78fbbc"><path d="M 160.550781 160.351562 L 196.40625 160.351562 L 196.40625 197.558594 L 160.550781 197.558594 Z M 160.550781 160.351562 " clip-rule="nonzero"/></clipPath></defs><path fill="#000000" d="M 74.289062 159.851562 L 85.085938 154.566406 C 87.066406 157.839844 90.511719 159.484375 95.417969 159.484375 C 97.699219 159.484375 99.816406 158.75 101.773438 157.285156 C 103.734375 155.820312 104.71875 153.570312 104.71875 150.546875 L 104.71875 147.730469 C 102.386719 150.304688 98.21875 151.589844 92.214844 151.589844 C 86.710938 151.589844 82.171875 149.644531 78.601562 145.757812 C 75.03125 141.867188 73.246094 137.097656 73.246094 131.4375 C 73.246094 125.78125 75.03125 120.992188 78.601562 117.074219 C 82.171875 113.15625 86.710938 111.199219 92.214844 111.199219 C 97.128906 111.199219 101.222656 112.714844 104.492188 115.738281 L 104.71875 115.738281 L 104.71875 112.3125 L 117.882812 112.3125 L 117.882812 151.519531 C 117.882812 157.722656 115.824219 162.503906 111.707031 165.867188 C 107.59375 169.238281 102.160156 170.929688 95.417969 170.929688 C 84.507812 170.929688 77.464844 167.234375 74.289062 159.851562 Z M 89.808594 124.96875 C 88.09375 126.652344 87.242188 128.808594 87.242188 131.4375 C 87.242188 134.070312 88.058594 136.214844 89.695312 137.878906 C 91.328125 139.535156 93.484375 140.359375 96.164062 140.359375 C 98.734375 140.359375 100.855469 139.519531 102.519531 137.835938 C 104.183594 136.144531 105.015625 134.011719 105.015625 131.4375 C 105.015625 128.808594 104.15625 126.652344 102.449219 124.96875 C 100.738281 123.277344 98.644531 122.429688 96.164062 122.429688 C 93.632812 122.429688 91.515625 123.277344 89.808594 124.96875 Z M 89.808594 124.96875 " fill-opacity="1" fill-rule="nonzero"/><path fill="#000000" d="M 121.015625 86.507812 L 134.179688 86.507812 L 134.179688 150.476562 L 121.015625 150.476562 Z M 121.015625 86.507812 " fill-opacity="1" fill-rule="nonzero"/><path fill="#000000" d="M 140.898438 145.941406 C 136.660156 142.171875 134.542969 137.339844 134.542969 131.4375 C 134.542969 125.539062 136.75 120.691406 141.167969 116.890625 C 145.582031 113.097656 151.035156 111.199219 157.53125 111.199219 C 163.929688 111.199219 169.320312 113.113281 173.710938 116.933594 C 178.097656 120.75 180.289062 125.585938 180.289062 131.4375 C 180.289062 137.292969 178.140625 142.117188 173.851562 145.910156 C 169.566406 149.699219 164.125 151.589844 157.53125 151.589844 C 150.6875 151.589844 145.144531 149.710938 140.898438 145.941406 Z M 151.101562 124.96875 C 149.390625 126.652344 148.539062 128.808594 148.539062 131.4375 C 148.539062 134.070312 149.355469 136.214844 150.988281 137.878906 C 152.625 139.535156 154.78125 140.359375 157.460938 140.359375 C 160.03125 140.359375 162.152344 139.519531 163.816406 137.835938 C 165.476562 136.144531 166.308594 134.011719 166.308594 131.4375 C 166.308594 128.808594 165.453125 126.652344 163.746094 124.96875 C 162.03125 123.277344 159.941406 122.429688 157.460938 122.429688 C 154.929688 122.429688 152.8125 123.277344 151.101562 124.96875 Z M 151.101562 124.96875 " fill-opacity="1" fill-rule="nonzero"/><path fill="#000000" d="M 204.097656 150.476562 L 195.175781 150.476562 L 174.710938 112.3125 L 189.890625 112.3125 L 199.191406 132.917969 L 208.339844 112.3125 L 217.417969 112.3125 L 226.5625 132.917969 L 235.863281 112.3125 L 251.042969 112.3125 L 230.578125 150.476562 L 221.660156 150.476562 L 212.878906 130.761719 Z M 204.097656 150.476562 " fill-opacity="1" fill-rule="nonzero"/><g clip-path="url(#c498458988)"><path fill="#f1d977" d="M 192.214844 130.957031 L 182.523438 130.957031 C 165.9375 127.363281 162.246094 123.664062 158.65625 107.050781 L 158.65625 97.738281 L 157.429688 97.738281 L 157.429688 107.148438 C 153.847656 123.679688 150.140625 127.371094 133.582031 130.957031 L 126.515625 130.957031 L 126.515625 132.179688 L 133.582031 132.179688 C 150.140625 135.765625 153.847656 139.457031 157.429688 155.988281 L 157.429688 165.226562 L 158.65625 165.226562 L 158.65625 156.089844 C 162.246094 139.476562 165.9375 135.773438 182.523438 132.179688 L 192.214844 132.179688 Z M 192.214844 130.957031 " fill-opacity="1" fill-rule="nonzero"/></g><path fill="#000000" d="M 132.292969 164.566406 C 133.992188 164.566406 135.675781 164.765625 137.335938 165.160156 C 139 165.546875 140.234375 165.929688 141.042969 166.316406 L 142.257812 166.894531 L 138.902344 173.617188 C 136.578125 172.375 134.378906 171.753906 132.292969 171.753906 C 131.136719 171.753906 130.3125 171.882812 129.824219 172.136719 C 129.347656 172.390625 129.105469 172.863281 129.105469 173.558594 C 129.105469 173.710938 129.125 173.867188 129.164062 174.023438 C 129.199219 174.175781 129.277344 174.320312 129.386719 174.460938 C 129.507812 174.59375 129.617188 174.710938 129.710938 174.8125 C 129.804688 174.910156 129.96875 175.011719 130.207031 175.125 C 130.4375 175.238281 130.621094 175.328125 130.753906 175.390625 C 130.886719 175.449219 131.109375 175.53125 131.417969 175.644531 C 131.726562 175.757812 131.957031 175.847656 132.109375 175.914062 C 132.265625 175.96875 132.53125 176.054688 132.898438 176.167969 C 133.265625 176.28125 133.546875 176.355469 133.742188 176.390625 C 134.933594 176.742188 135.976562 177.132812 136.871094 177.5625 C 137.765625 177.984375 138.699219 178.5625 139.675781 179.296875 C 140.664062 180.027344 141.425781 180.957031 141.960938 182.085938 C 142.503906 183.207031 142.777344 184.476562 142.777344 185.90625 C 142.777344 192.671875 138.085938 196.054688 128.699219 196.054688 C 126.574219 196.054688 124.554688 195.722656 122.636719 195.066406 C 120.726562 194.410156 119.347656 193.753906 118.496094 193.09375 L 117.226562 192.050781 L 121.398438 185.03125 C 121.707031 185.304688 122.109375 185.625 122.609375 185.988281 C 123.117188 186.355469 124.023438 186.859375 125.328125 187.496094 C 126.644531 188.140625 127.785156 188.457031 128.753906 188.457031 C 130.875 188.457031 131.941406 187.746094 131.941406 186.3125 C 131.941406 185.660156 131.664062 185.144531 131.121094 184.777344 C 130.585938 184.410156 129.671875 184 128.375 183.539062 C 127.085938 183.070312 126.070312 182.644531 125.328125 182.253906 C 123.476562 181.289062 122.011719 180.199219 120.933594 178.984375 C 119.851562 177.765625 119.3125 176.148438 119.3125 174.136719 C 119.3125 171.121094 120.472656 168.773438 122.808594 167.089844 C 125.144531 165.410156 128.308594 164.566406 132.292969 164.566406 Z M 132.292969 164.566406 " fill-opacity="1" fill-rule="nonzero"/><path fill="#000000" d="M 173.964844 169.121094 C 176.753906 172.15625 178.152344 175.878906 178.152344 180.28125 C 178.152344 184.691406 176.753906 188.421875 173.964844 191.472656 C 171.183594 194.527344 167.652344 196.054688 163.367188 196.054688 C 159.421875 196.054688 156.171875 194.8125 153.628906 192.332031 L 153.628906 210.246094 L 143.367188 210.246094 L 143.367188 165.441406 L 153.515625 165.441406 L 153.515625 168.808594 L 153.628906 168.808594 C 156.171875 165.984375 159.421875 164.566406 163.367188 164.566406 C 167.652344 164.566406 171.183594 166.085938 173.964844 169.121094 Z M 165.242188 185.328125 C 166.574219 184.011719 167.242188 182.332031 167.242188 180.28125 C 167.242188 178.234375 166.601562 176.5625 165.324219 175.265625 C 164.058594 173.96875 162.378906 173.320312 160.292969 173.320312 C 158.28125 173.320312 156.628906 173.980469 155.332031 175.292969 C 154.035156 176.609375 153.386719 178.273438 153.386719 180.28125 C 153.386719 182.332031 154.054688 184.011719 155.390625 185.328125 C 156.722656 186.644531 158.355469 187.300781 160.292969 187.300781 C 162.265625 187.300781 163.917969 186.644531 165.242188 185.328125 Z M 165.242188 185.328125 " fill-opacity="1" fill-rule="nonzero"/><path fill="#000000" d="M 178.441406 195.179688 L 178.441406 145.328125 L 188.699219 145.328125 L 188.699219 168.570312 L 188.8125 168.570312 C 191.480469 165.902344 194.324219 164.566406 197.339844 164.566406 C 198.804688 164.566406 200.261719 164.765625 201.707031 165.160156 C 203.152344 165.546875 204.546875 166.140625 205.878906 166.949219 C 207.210938 167.757812 208.292969 168.910156 209.121094 170.402344 C 209.957031 171.890625 210.375 173.617188 210.375 175.589844 L 210.375 195.179688 L 200.117188 195.179688 L 200.117188 178.363281 C 200.117188 176.824219 199.621094 175.476562 198.636719 174.320312 C 197.648438 173.15625 196.367188 172.574219 194.789062 172.574219 C 193.238281 172.574219 191.832031 173.175781 190.574219 174.375 C 189.324219 175.570312 188.699219 176.898438 188.699219 178.363281 L 188.699219 195.179688 Z M 178.441406 195.179688 " fill-opacity="1" fill-rule="nonzero"/><path fill="#000000" d="M 242.3125 181.734375 L 220.75 181.734375 C 220.75 183.820312 221.425781 185.367188 222.777344 186.371094 C 224.132812 187.378906 225.601562 187.878906 227.191406 187.878906 C 228.851562 187.878906 230.164062 187.660156 231.121094 187.214844 C 232.085938 186.765625 233.195312 185.882812 234.433594 184.566406 L 241.863281 188.289062 C 238.761719 193.464844 233.617188 196.054688 226.429688 196.054688 C 221.949219 196.054688 218.101562 194.515625 214.902344 191.445312 C 211.695312 188.371094 210.09375 184.671875 210.09375 180.339844 C 210.09375 176.007812 211.695312 172.296875 214.902344 169.203125 C 218.101562 166.113281 221.949219 164.566406 226.429688 164.566406 C 231.144531 164.566406 234.984375 165.929688 237.945312 168.65625 C 240.902344 171.382812 242.382812 175.273438 242.382812 180.339844 C 242.382812 181.035156 242.359375 181.5 242.3125 181.734375 Z M 221.046875 176.054688 L 232.347656 176.054688 C 232.113281 174.503906 231.503906 173.316406 230.515625 172.488281 C 229.535156 171.652344 228.277344 171.234375 226.726562 171.234375 C 225.023438 171.234375 223.671875 171.679688 222.667969 172.574219 C 221.660156 173.46875 221.121094 174.625 221.046875 176.054688 Z M 221.046875 176.054688 " fill-opacity="1" fill-rule="nonzero"/><path fill="#000000" d="M 242.671875 195.179688 L 242.671875 165.441406 L 252.929688 165.441406 L 252.929688 169.726562 L 253.042969 169.726562 C 253.117188 169.578125 253.242188 169.386719 253.410156 169.160156 C 253.585938 168.929688 253.96875 168.519531 254.550781 167.9375 C 255.132812 167.355469 255.75 166.832031 256.398438 166.371094 C 257.054688 165.902344 257.90625 165.484375 258.949219 165.117188 C 260 164.75 261.066406 164.566406 262.148438 164.566406 C 263.265625 164.566406 264.363281 164.722656 265.445312 165.03125 C 266.523438 165.34375 267.320312 165.652344 267.828125 165.960938 L 268.632812 166.429688 L 264.347656 175.125 C 263.070312 174.046875 261.292969 173.503906 259.019531 173.503906 C 257.78125 173.503906 256.710938 173.777344 255.820312 174.320312 C 254.9375 174.855469 254.3125 175.511719 253.945312 176.28125 C 253.578125 177.050781 253.316406 177.710938 253.15625 178.253906 C 253.003906 178.796875 252.929688 179.222656 252.929688 179.519531 L 252.929688 195.179688 Z M 242.671875 195.179688 " fill-opacity="1" fill-rule="nonzero"/><path fill="#000000" d="M 297.09375 181.734375 L 275.53125 181.734375 C 275.53125 183.820312 276.207031 185.367188 277.5625 186.371094 C 278.914062 187.378906 280.382812 187.878906 281.972656 187.878906 C 283.636719 187.878906 284.945312 187.660156 285.90625 187.214844 C 286.871094 186.765625 287.976562 185.882812 289.214844 184.566406 L 296.644531 188.289062 C 293.542969 193.464844 288.398438 196.054688 281.210938 196.054688 C 276.730469 196.054688 272.886719 194.515625 269.683594 191.445312 C 266.476562 188.371094 264.875 184.671875 264.875 180.339844 C 264.875 176.007812 266.476562 172.296875 269.683594 169.203125 C 272.886719 166.113281 276.730469 164.566406 281.210938 164.566406 C 285.925781 164.566406 289.765625 165.929688 292.726562 168.65625 C 295.6875 171.382812 297.164062 175.273438 297.164062 180.339844 C 297.164062 181.035156 297.140625 181.5 297.09375 181.734375 Z M 275.828125 176.054688 L 287.128906 176.054688 C 286.894531 174.503906 286.285156 173.316406 285.296875 172.488281 C 284.320312 171.652344 283.058594 171.234375 281.507812 171.234375 C 279.804688 171.234375 278.453125 171.679688 277.449219 172.574219 C 276.441406 173.46875 275.902344 174.625 275.828125 176.054688 Z M 275.828125 176.054688 " fill-opacity="1" fill-rule="nonzero"/><path fill="#000000" d="M 304.0625 182.777344 C 305.914062 182.777344 307.488281 183.425781 308.785156 184.722656 C 310.082031 186.011719 310.730469 187.582031 310.730469 189.441406 C 310.730469 191.257812 310.082031 192.8125 308.785156 194.109375 C 307.488281 195.40625 305.914062 196.054688 304.0625 196.054688 C 302.238281 196.054688 300.679688 195.40625 299.382812 194.109375 C 298.09375 192.8125 297.453125 191.257812 297.453125 189.441406 C 297.453125 187.582031 298.09375 186.011719 299.382812 184.722656 C 300.679688 183.425781 302.238281 182.777344 304.0625 182.777344 Z M 304.0625 182.777344 " fill-opacity="1" fill-rule="nonzero"/><g clip-path="url(#302e78fbbc)"><path fill="#f1d977" d="M 196.519531 178.535156 L 191.214844 178.535156 C 182.136719 176.570312 180.117188 174.542969 178.152344 165.449219 L 178.152344 160.351562 L 177.480469 160.351562 L 177.480469 165.503906 C 175.519531 174.550781 173.492188 176.574219 164.429688 178.535156 L 160.558594 178.535156 L 160.558594 179.207031 L 164.429688 179.207031 C 173.492188 181.167969 175.519531 183.191406 177.480469 192.238281 L 177.480469 197.292969 L 178.152344 197.292969 L 178.152344 192.292969 C 180.117188 183.199219 182.136719 181.171875 191.214844 179.207031 L 196.519531 179.207031 Z M 196.519531 178.535156 " fill-opacity="1" fill-rule="nonzero"/></g></svg>